Coordinates
version=1
nRows=16
nColumns=33
inDegrees=yes

Units are S.I. units (second, meters, Newtons, ...)
Angles are in degrees.

endheader
time	ground_thorax_rot_x	ground_thorax_rot_y	ground_thorax_rot_z	ground_thorax_tx	ground_thorax_ty	ground_thorax_tz	clav_prot_r	clav_elev_r	scapula_abduction_r	scapula_elevation_r	scapula_upward_rot_r	scapula_winging_r	shoulder_elv_r	plane_of_elev_r	axial_rot_r	elbow_flexion_r	pro_sup_r	wrist_flex_r	wrist_dev_r	clav_prot_l	clav_elev_l	scapula_abduction_l	scapula_elevation_l	scapula_upward_rot_l	scapula_winging_l	shoulder_elv_l	plane_of_elev_l	axial_rot_l	elbow_flexion_l	pro_sup_l	wrist_flex_l	wrist_dev_l
      3.38000000	     26.78920438	     28.87980053	     46.40403718	      2.91329428	    830.15165041	    -45.96796469	     13.32084265	     34.77911203	     30.99118537	     45.00000000	    -45.00000000	    994.64075940	   2771.07214837	    156.34650842	      3.74550735	   1798.08224358	    527.01513437	     14.86923860	     15.81897901	     -8.90288956	    -45.00000000	    -38.18660842	     45.00000000	    -45.00000000	   5499.77622385	  -5682.64485765	     28.63084488	     45.29394028	   1069.97065427	     46.37513852	     13.84599544	    -18.31609797
      3.39000000	     26.76835725	     28.98034115	     46.47112066	      5.38929460	    829.23481564	    -45.83895989	     13.30966469	     34.90929913	     31.00850816	     45.00000000	    -44.79527455	    994.74476522	   2771.00063880	    156.34407209	      3.85689504	   1798.17101895	    527.47032432	     14.79057004	     15.77651026	     -9.08439525	    -45.00000000	    -38.07514809	     45.00000000	    -45.00000000	   5499.60031275	  -5682.74020334	     28.62751416	     45.24884517	   1069.94047557	     46.51940133	     13.79602489	    -18.19423082
      3.40000000	     26.66877282	     29.13599040	     46.67115736	      7.86503716	    828.31474289	    -45.70584633	     13.29355846	     34.92300819	     31.03537560	     45.00000000	    -44.79098706	    994.87623029	   2770.97864493	    156.39402377	      3.88306901	   1798.15365082	    527.92272101	     14.73024809	     15.76436412	     -9.18207351	    -45.00000000	    -37.99721542	     45.00000000	    -45.00000000	   5499.46655698	  -5682.82944747	     28.59562157	     45.21783509	   1069.89003395	     46.65133091	     13.73546802	    -18.05872695
      3.41000000	     26.60473944	     29.31056257	     46.79980380	     10.34039036	    827.39142662	    -45.56876542	     13.31818445	     34.98693083	     30.98036171	     45.00000000	    -44.67492816	    995.00794347	   2770.95325968	    156.44163149	      3.93868951	   1798.11736260	    528.38537226	     14.66935848	     15.75934004	     -9.33135742	    -45.00000000	    -37.91490510	     45.00000000	    -45.00000000	   5499.28180705	  -5682.92492446	     28.54858622	     45.12428158	   1069.85440336	     46.77065147	     13.66413381	    -17.91731530
      3.42000000	     26.59405322	     29.39958396	     46.97082503	     12.81803314	    826.46305900	    -45.42833988	     13.65830426	     34.95226020	     31.29114591	     45.00000000	    -45.00000000	    995.00947537	   2770.76042277	    156.26509480	      3.62870033	   1798.36106784	    528.85085846	     14.59123344	     15.63935335	     -9.64443676	    -45.00000000	    -37.66440165	     45.00000000	    -45.00000000	   5499.21012749	  -5683.00983463	     28.55625141	     45.04102240	   1069.77360076	     46.88262644	     13.60332885	    -17.78840020
      3.43000000	     26.46550982	     29.62274035	     47.13094737	     15.29842748	    825.52760387	    -45.28537151	     13.15527808	     35.02061782	     31.04144778	     45.00000000	    -44.61745832	    995.30838812	   2770.87132456	    156.53300594	      3.96138767	   1798.19906473	    529.39036361	     14.54708590	     15.69604074	     -9.50675227	    -45.00000000	    -37.71985532	     45.00000000	    -45.00000000	   5499.05841078	  -5683.12596137	     28.51715329	     44.90920781	   1069.75488736	     46.98747049	     13.57387042	    -17.69531017
      3.44000000	     26.46018306	     29.71584632	     47.34395299	     17.77868069	    824.58246838	    -45.14049178	     13.71615644	     35.00712517	     31.35360605	     45.00000000	    -45.00000000	    995.28558786	   2770.70143365	    156.30054334	      3.70286162	   1798.41527822	    529.83628810	     14.46016830	     15.58870447	     -9.91191182	    -45.00000000	    -37.43638235	     45.00000000	    -45.00000000	   5498.96074319	  -5683.22018720	     28.44619018	     44.74947601	   1069.72075649	     47.09066831	     13.46079695	    -17.54015839
      3.45000000	     26.46789573	     29.88310161	     47.31068070	     20.25642158	    823.62402611	    -44.99337477	     13.36674069	     35.18899080	     31.28210051	     45.00000000	    -44.63543230	    995.40507662	   2770.65589254	    156.42693991	      4.09770189	   1798.42975998	    530.39882869	     14.44230882	     15.50279838	     -9.99168873	    -45.00000000	    -37.42518752	     45.00000000	    -45.00000000	   5498.75448404	  -5683.33080839	     28.45153760	     44.69727579	   1069.69775513	     47.20590280	     13.41867817	    -17.43920293
      3.46000000	     26.27973784	     30.09899549	     47.71779371	     22.72520423	    822.64900361	    -44.84308906	     13.69757311	     34.98327303	     31.30075526	     45.00000000	    -44.98583616	    995.59186987	   2770.68016201	    156.37365619	      3.77908372	   1798.46946087	    530.79357611	     14.32898880	     15.54916376	    -10.10064298	    -45.00000000	    -37.25280398	     45.00000000	    -45.00000000	   5498.70541868	  -5683.38484505	     28.36830936	     44.30873878	   1069.57229157	     47.32531601	     13.34947393	    -17.27780276
      3.47000000	     26.45038494	     30.15068627	     47.53809375	     25.18116058	    821.65417774	    -44.68820973	     13.40321821	     35.36803503	     31.32010040	     45.00000000	    -44.41135169	    995.66174208	   2770.55475433	    156.46846415	      4.35680784	   1798.51014311	    531.35412420	     14.34086295	     15.43362913	    -10.36864859	    -45.00000000	    -37.15501915	     45.00000000	    -45.00000000	   5498.46595876	  -5683.57653616	     28.30891336	     44.35369278	   1069.65130068	     47.42753666	     13.28547918	    -17.19611718
      3.48000000	     26.22265444	     30.40769037	     47.95086114	     27.62211047	    820.63683347	    -44.52793695	     13.72348219	     35.12199299	     31.36077332	     45.00000000	    -45.00000000	    995.80384482	   2770.58648150	    156.38933482	      3.95729345	   1798.57264666	    531.72004376	     14.25827872	     15.45920584	    -10.45613995	    -45.00000000	    -37.02012656	     45.00000000	    -45.00000000	   5498.44842937	  -5683.63859148	     28.24823295	     43.89830796	   1069.54732788	     47.56473881	     13.21492437	    -17.04578731
      3.49000000	     26.30824080	     30.50987125	     47.87811999	     30.04943270	    819.59585196	    -44.36266226	     13.49024953	     35.40463498	     31.38604979	     45.00000000	    -44.58155904	    995.87625143	   2770.41777368	    156.49068905	      4.33987387	   1798.61101796	    532.24420744	     14.28455858	     15.34739777	    -10.72256132	    -45.00000000	    -36.92781478	     45.00000000	    -45.00000000	   5498.22077696	  -5683.83114021	     28.18019538	     43.79909034	   1069.59001240	     47.70374734	     13.15496041	    -16.95075261
      3.50000000	     26.07980106	     30.76124315	     48.30539681	     32.46139418	    818.53320997	    -44.19408851	     13.81402073	     35.21303041	     31.32403821	     45.00000000	    -45.00000000	    996.06034867	   2770.48138356	    156.43363911	      4.12008539	   1798.64071911	    532.61397890	     14.23622334	     15.31515848	    -10.83929385	    -45.00000000	    -36.76560431	     45.00000000	    -45.00000000	   5498.13485714	  -5683.89321652	     28.03521782	     43.31975168	   1069.52737631	     47.86699816	     13.04983784	    -16.77546153
      3.51000000	     26.27544195	     30.79641679	     48.08793067	     34.86464536	    817.44850880	    -44.02427819	     13.53343459	     35.57941956	     31.40899113	     45.00000000	    -44.48630039	    996.09711512	   2770.30118628	    156.55635605	      4.66305400	   1798.70450582	    533.13843152	     14.26550760	     15.25078793	    -11.12330276	    -45.00000000	    -36.63029487	     45.00000000	    -45.00000000	   5497.94813986	  -5684.12647592	     28.05332209	     43.24758217	   1069.55999673	     48.04067408	     13.05312941	    -16.76718623
      3.52000000	     25.79927586	     31.24077235	     48.78520380	     37.25376891	    816.34536756	    -43.85521877	     13.93367468	     35.20527886	     31.06518715	     45.00000000	    -45.00000000	    996.37893003	   2770.44414677	    156.57912961	      4.35367095	   1798.67344189	    533.42368792	     14.22543244	     15.06488009	    -11.17599156	    -45.00000000	    -36.48963219	     45.00000000	    -45.00000000	   5497.68697586	  -5684.09911114	     27.68698072	     42.62548024	   1069.58753294	     48.23922033	     12.74405356	    -16.41232205
      3.53000000	     26.21464766	     31.07968673	     48.30688385	     39.63100166	    815.22317213	    -43.68754973	     13.47936244	     35.74553506	     31.33417365	     45.00000000	    -44.43579649	    996.35410284	   2770.22879639	    156.58938414	      5.00190159	   1798.83602896	    533.93799846	     14.22300792	     15.11869211	    -11.46574141	    -45.00000000	    -36.39628233	     45.00000000	    -45.00000000	   5497.66804887	  -5684.47082988	     27.91323500	     42.55725492	   1069.57479260	     48.44027316	     12.90679307	    -16.59179218
